<svg width="113" height="130" viewBox="0 0 113 130" fill="none" xmlns="http://www.w3.org/2000/svg">
<path d="M56.2916 0L112.583 52.5V87.5L56.2916 130L0 87.5V52.5L56.2916 0Z" fill="#D8754F"/>
<path d="M43.9229 69.3564C43.9229 75.7197 42.6221 80.5889 40.0205 83.9639C37.4365 87.3213 33.71 89 28.8408 89H19.4014V50.4512H29.7109C34.1934 50.4512 37.6826 52.1123 40.1787 55.4346C42.6748 58.7393 43.9229 63.3799 43.9229 69.3564ZM36.5664 69.5674C36.5664 60.9541 34.1934 56.6475 29.4473 56.6475H26.5732V82.7246H28.8936C31.5127 82.7246 33.4463 81.6348 34.6943 79.4551C35.9424 77.2578 36.5664 73.9619 36.5664 69.5674Z" fill="#FFFCEE"/>
<path d="M65.3857 89H58.3193V66.377C58.3193 63.916 58.4424 61.0859 58.6885 57.8867C58.5654 58.0625 58.1084 58.5986 57.3174 59.4951C56.5439 60.3916 55.0234 62 52.7559 64.3203L48.748 59.9434L59.0049 50.4512H65.3857V89Z" fill="#FFFCEE"/>
<path d="M94.2051 69.7256C94.2051 76.7041 93.3613 81.749 91.6738 84.8604C90.0039 87.9717 87.3057 89.5273 83.5791 89.5273C79.8525 89.5273 77.1719 87.9629 75.5371 84.834C73.9199 81.7051 73.1113 76.6689 73.1113 69.7256C73.1113 62.7646 73.9639 57.7109 75.6689 54.5645C77.374 51.418 80.0459 49.8447 83.6846 49.8447C87.3936 49.8447 90.0742 51.3828 91.7266 54.459C93.3789 57.5352 94.2051 62.624 94.2051 69.7256ZM80.2832 69.7256C80.2832 75.1221 80.5117 78.7607 80.9688 80.6416C81.4434 82.5049 82.3311 83.4365 83.6318 83.4365C84.5107 83.4365 85.1875 83.0322 85.6621 82.2236C86.1543 81.415 86.5059 80.0791 86.7168 78.2158C86.9277 76.335 87.0332 73.5049 87.0332 69.7256C87.0332 64.417 86.7871 60.7959 86.2949 58.8623C85.8027 56.9287 84.915 55.9619 83.6318 55.9619C82.3311 55.9619 81.4434 56.9287 80.9688 58.8623C80.5117 60.7783 80.2832 64.3994 80.2832 69.7256Z" fill="#FFFCEE"/>
</svg>
