<svg width="124" height="130" viewBox="0 0 124 130" fill="none" xmlns="http://www.w3.org/2000/svg">
<path d="M61.8187 0L100.025 12.4139L123.637 44.9139V85.0861L100.025 117.586L61.8187 130L23.6126 117.586L0 85.0861V44.9139L23.6126 12.4139L61.8187 0Z" fill="#D8754F"/>
<path d="M49.9229 65.3564C49.9229 71.7197 48.6221 76.5889 46.0205 79.9639C43.4365 83.3213 39.71 85 34.8408 85H25.4014V46.4512H35.7109C40.1934 46.4512 43.6826 48.1123 46.1787 51.4346C48.6748 54.7393 49.9229 59.3799 49.9229 65.3564ZM42.5664 65.5674C42.5664 56.9541 40.1934 52.6475 35.4473 52.6475H32.5732V78.7246H34.8936C37.5127 78.7246 39.4463 77.6348 40.6943 75.4551C41.9424 73.2578 42.5664 69.9619 42.5664 65.5674Z" fill="#FFFCEE"/>
<path d="M71.3857 85H64.3193V62.377C64.3193 59.916 64.4424 57.0859 64.6885 53.8867C64.5654 54.0625 64.1084 54.5986 63.3174 55.4951C62.5439 56.3916 61.0234 58 58.7559 60.3203L54.748 55.9434L65.0049 46.4512H71.3857V85Z" fill="#FFFCEE"/>
<path d="M99.7832 85H79.1113V79.6475L85.9668 69.9443C87.8477 67.2725 89.1396 65.2949 89.8428 64.0117C90.5459 62.7109 91.0645 61.4717 91.3984 60.2939C91.7324 59.0986 91.8994 57.8682 91.8994 56.6025C91.8994 55.126 91.5654 54.0186 90.8975 53.2803C90.2471 52.542 89.3945 52.1729 88.3398 52.1729C87.4082 52.1729 86.5381 52.4189 85.7295 52.9111C84.9209 53.4033 83.9365 54.291 82.7764 55.5742L78.7686 51.3555C80.6143 49.2637 82.3281 47.8311 83.9102 47.0576C85.4922 46.2842 87.2061 45.8975 89.0518 45.8975C92.1631 45.8975 94.5889 46.8115 96.3291 48.6396C98.0869 50.4678 98.9658 53.0078 98.9658 56.2598C98.9658 57.7363 98.8076 59.1338 98.4912 60.4521C98.1748 61.7705 97.6914 63.0977 97.041 64.4336C96.4082 65.752 95.6084 67.1318 94.6416 68.5732C93.6748 69.9971 91.1787 73.2754 87.1533 78.4082V78.6191H99.7832V85Z" fill="#FFFCEE"/>
</svg>
