<svg width="113" height="130" viewBox="0 0 113 130" fill="none" xmlns="http://www.w3.org/2000/svg">
<path d="M56.2916 0L112.583 42.5V87.5L56.2916 130L0 87.5V42.5L56.2916 0Z" fill="#D8754F"/>
<path d="M43.9229 66.3564C43.9229 72.7197 42.6221 77.5889 40.0205 80.9639C37.4365 84.3213 33.71 86 28.8408 86H19.4014V47.4512H29.7109C34.1934 47.4512 37.6826 49.1123 40.1787 52.4346C42.6748 55.7393 43.9229 60.3799 43.9229 66.3564ZM36.5664 66.5674C36.5664 57.9541 34.1934 53.6475 29.4473 53.6475H26.5732V79.7246H28.8936C31.5127 79.7246 33.4463 78.6348 34.6943 76.4551C35.9424 74.2578 36.5664 70.9619 36.5664 66.5674Z" fill="#FFFCEE"/>
<path d="M68.7871 86H48.1152V80.6475L54.9707 70.9443C56.8516 68.2725 58.1436 66.2949 58.8467 65.0117C59.5498 63.7109 60.0684 62.4717 60.4023 61.2939C60.7363 60.0986 60.9033 58.8682 60.9033 57.6025C60.9033 56.126 60.5693 55.0186 59.9014 54.2803C59.251 53.542 58.3984 53.1729 57.3438 53.1729C56.4121 53.1729 55.542 53.4189 54.7334 53.9111C53.9248 54.4033 52.9404 55.291 51.7803 56.5742L47.7725 52.3555C49.6182 50.2637 51.332 48.8311 52.9141 48.0576C54.4961 47.2842 56.21 46.8975 58.0557 46.8975C61.167 46.8975 63.5928 47.8115 65.333 49.6396C67.0908 51.4678 67.9697 54.0078 67.9697 57.2598C67.9697 58.7363 67.8115 60.1338 67.4951 61.4521C67.1787 62.7705 66.6953 64.0977 66.0449 65.4336C65.4121 66.752 64.6123 68.1318 63.6455 69.5732C62.6787 70.9971 60.1826 74.2754 56.1572 79.4082V79.6191H68.7871V86Z" fill="#FFFCEE"/>
<path d="M94.2051 66.7256C94.2051 73.7041 93.3613 78.749 91.6738 81.8604C90.0039 84.9717 87.3057 86.5273 83.5791 86.5273C79.8525 86.5273 77.1719 84.9629 75.5371 81.834C73.9199 78.7051 73.1113 73.6689 73.1113 66.7256C73.1113 59.7646 73.9639 54.7109 75.6689 51.5645C77.374 48.418 80.0459 46.8447 83.6846 46.8447C87.3936 46.8447 90.0742 48.3828 91.7266 51.459C93.3789 54.5352 94.2051 59.624 94.2051 66.7256ZM80.2832 66.7256C80.2832 72.1221 80.5117 75.7607 80.9688 77.6416C81.4434 79.5049 82.3311 80.4365 83.6318 80.4365C84.5107 80.4365 85.1875 80.0322 85.6621 79.2236C86.1543 78.415 86.5059 77.0791 86.7168 75.2158C86.9277 73.335 87.0332 70.5049 87.0332 66.7256C87.0332 61.417 86.7871 57.7959 86.2949 55.8623C85.8027 53.9287 84.915 52.9619 83.6318 52.9619C82.3311 52.9619 81.4434 53.9287 80.9688 55.8623C80.5117 57.7783 80.2832 61.3994 80.2832 66.7256Z" fill="#FFFCEE"/>
</svg>
