<svg width="151" height="130" viewBox="0 0 151 130" fill="none" xmlns="http://www.w3.org/2000/svg">
<path d="M75.0555 0L150.111 130H0L75.0555 0Z" fill="#D8754F"/>
<path d="M74.9229 78.3564C74.9229 84.7197 73.6221 89.5889 71.0205 92.9639C68.4365 96.3213 64.71 98 59.8408 98H50.4014V59.4512H60.7109C65.1934 59.4512 68.6826 61.1123 71.1787 64.4346C73.6748 67.7393 74.9229 72.3799 74.9229 78.3564ZM67.5664 78.5674C67.5664 69.9541 65.1934 65.6475 60.4473 65.6475H57.5732V91.7246H59.8936C62.5127 91.7246 64.4463 90.6348 65.6943 88.4551C66.9424 86.2578 67.5664 82.9619 67.5664 78.5674Z" fill="#FFFCEE"/>
<path d="M101.369 89.9053H97.4668V98H90.7168V89.9053H78.1396V84.0781L89.7939 59.4512H97.4668V83.9727H101.369V89.9053ZM90.7168 83.9727V75.8516L90.8486 72.2656L91.0332 68.8379H90.8223C90.207 70.7539 89.5391 72.4854 88.8184 74.0322L84.1777 83.9727H90.7168Z" fill="#FFFCEE"/>
</svg>
