<svg width="130" height="130" viewBox="0 0 130 130" fill="none" xmlns="http://www.w3.org/2000/svg">
<rect width="130" height="130" fill="#D8754F"/>
<path d="M64.9229 66.3564C64.9229 72.7197 63.6221 77.5889 61.0205 80.9639C58.4365 84.3213 54.71 86 49.8408 86H40.4014V47.4512H50.7109C55.1934 47.4512 58.6826 49.1123 61.1787 52.4346C63.6748 55.7393 64.9229 60.3799 64.9229 66.3564ZM57.5664 66.5674C57.5664 57.9541 55.1934 53.6475 50.4473 53.6475H47.5732V79.7246H49.8936C52.5127 79.7246 54.4463 78.6348 55.6943 76.4551C56.9424 74.2578 57.5664 70.9619 57.5664 66.5674Z" fill="#FFFCEE"/>
<path d="M69.1152 69.626C69.1152 61.7686 70.3369 56.0293 72.7803 52.4082C75.2236 48.7695 78.9502 46.9502 83.96 46.9502C84.751 46.9502 85.542 47.0029 86.333 47.1084C87.124 47.1963 87.7217 47.293 88.126 47.3984V53.3311C86.9131 53.0498 85.7178 52.9092 84.54 52.9092C82.5361 52.9092 80.8926 53.3486 79.6094 54.2275C78.3262 55.1064 77.3506 56.4248 76.6826 58.1826C76.0146 59.9229 75.6104 62.375 75.4697 65.5391H75.7598C76.375 64.0801 77.2188 62.9814 78.291 62.2432C79.3633 61.4873 80.6025 61.1094 82.0088 61.1094C84.5928 61.1094 86.6055 62.1641 88.0469 64.2734C89.4883 66.3652 90.209 69.3623 90.209 73.2646C90.209 77.3428 89.2598 80.5771 87.3613 82.9678C85.4629 85.3408 82.8877 86.5273 79.6357 86.5273C76.1904 86.5273 73.5713 85.1035 71.7783 82.2559C70.0029 79.4082 69.1152 75.1982 69.1152 69.626ZM79.6885 80.4893C80.7432 80.4893 81.5869 79.9092 82.2197 78.749C82.8701 77.5889 83.1953 75.7783 83.1953 73.3174C83.1953 71.3311 82.9053 69.7666 82.3252 68.624C81.7627 67.4639 80.9014 66.8838 79.7412 66.8838C78.7041 66.8838 77.8604 67.4199 77.21 68.4922C76.5596 69.5645 76.2344 70.918 76.2344 72.5527C76.2344 75.1191 76.5332 77.0879 77.1309 78.459C77.7461 79.8125 78.5986 80.4893 79.6885 80.4893Z" fill="#FFFCEE"/>
</svg>
