<svg width="113" height="130" viewBox="0 0 113 130" fill="none" xmlns="http://www.w3.org/2000/svg">
<path d="M56.2916 0L112.583 32.5V97.5L56.2916 130L0 97.5V32.5L56.2916 0Z" fill="#D8754F"/>
<path d="M55.9229 66.3564C55.9229 72.7197 54.6221 77.5889 52.0205 80.9639C49.4365 84.3213 45.71 86 40.8408 86H31.4014V47.4512H41.7109C46.1934 47.4512 49.6826 49.1123 52.1787 52.4346C54.6748 55.7393 55.9229 60.3799 55.9229 66.3564ZM48.5664 66.5674C48.5664 57.9541 46.1934 53.6475 41.4473 53.6475H38.5732V79.7246H40.8936C43.5127 79.7246 45.4463 78.6348 46.6943 76.4551C47.9424 74.2578 48.5664 70.9619 48.5664 66.5674Z" fill="#FFFCEE"/>
<path d="M70.6885 46.9502C73.6943 46.9502 76.0938 47.8027 77.8867 49.5078C79.6797 51.2129 80.5762 53.5332 80.5762 56.4688C80.5762 58.2793 80.1543 59.9229 79.3105 61.3994C78.4844 62.8584 77.0693 64.2559 75.0654 65.5918C77.3154 67.1914 78.915 68.835 79.8643 70.5225C80.8135 72.1924 81.2881 74.0205 81.2881 76.0068C81.2881 79.1533 80.3213 81.6934 78.3877 83.627C76.4541 85.5605 73.8877 86.5273 70.6885 86.5273C67.3662 86.5273 64.7646 85.6396 62.8838 83.8643C61.0029 82.0713 60.0625 79.5225 60.0625 76.2178C60.0625 74.0029 60.5283 72.0518 61.46 70.3643C62.4092 68.6592 63.8682 67.1738 65.8369 65.9082C64.0088 64.4492 62.6992 62.9814 61.9082 61.5049C61.1348 60.0107 60.748 58.332 60.748 56.4688C60.748 53.5859 61.6709 51.2832 63.5166 49.5605C65.3799 47.8203 67.7705 46.9502 70.6885 46.9502ZM66.8652 75.8486C66.8652 77.3955 67.1816 78.626 67.8145 79.54C68.4648 80.4541 69.3877 80.9111 70.583 80.9111C71.8838 80.9111 72.8506 80.4541 73.4834 79.54C74.1338 78.626 74.459 77.3955 74.459 75.8486C74.459 74.7412 74.2041 73.6953 73.6943 72.7109C73.1846 71.7266 72.2002 70.5928 70.7412 69.3096L70.3721 68.9404C69.2295 69.7842 68.3594 70.751 67.7617 71.8408C67.1641 72.9131 66.8652 74.249 66.8652 75.8486ZM70.6357 52.5137C69.6338 52.5137 68.8779 52.8828 68.3682 53.6211C67.8584 54.3418 67.6035 55.3789 67.6035 56.7324C67.6035 57.8926 67.8145 58.9033 68.2363 59.7646C68.6582 60.626 69.4756 61.54 70.6885 62.5068C71.8486 61.6104 72.6396 60.7139 73.0615 59.8174C73.501 58.9209 73.7207 57.8926 73.7207 56.7324C73.7207 53.9199 72.6924 52.5137 70.6357 52.5137Z" fill="#FFFCEE"/>
</svg>
