<svg width="113" height="130" viewBox="0 0 113 130" fill="none" xmlns="http://www.w3.org/2000/svg">
<path d="M56.2916 0L112.583 31.5V95.5L56.2916 130L0 95.5V31.5L56.2916 0Z" fill="#D8754F"/>
<path d="M55.5398 27.2296L3.40317 33.3357C2.71808 33.4159 2.31802 34.1493 2.62143 34.7687L25.167 80.7993C25.5205 81.5211 26.538 81.552 26.9348 80.853L56.5258 28.7164C56.9302 28.004 56.3534 27.1343 55.5398 27.2296Z" fill="#FBA17F"/>
<path d="M59.4497 27.2043L108.673 32.3609C109.336 32.4304 109.747 33.1177 109.494 33.7349L90.2733 80.6138C89.9581 81.3828 88.8969 81.4539 88.4818 80.734L58.4792 28.6983C58.0713 27.9908 58.6375 27.1192 59.4497 27.2043Z" fill="#FBA17F"/>
<path d="M87.8916 83H27.9903C27.168 83 26.6971 83.9371 27.1879 84.5969L55.7346 122.971C56.1232 123.494 56.8994 123.511 57.3114 123.007L88.6659 84.6327C89.1995 83.9797 88.7349 83 87.8916 83Z" fill="#FBA17F"/>
</svg>
