<svg width="1020" height="1019" viewBox="0 0 1020 1019" fill="none" xmlns="http://www.w3.org/2000/svg">
<mask id="path-1-outside-1_102_85" maskUnits="userSpaceOnUse" x="129.115" y="115.496" width="775" height="796" fill="black">
<rect fill="white" x="129.115" y="115.496" width="775" height="796"/>
<path fill-rule="evenodd" clip-rule="evenodd" d="M515.729 119.496L624.486 197.806L784.417 224.077L805.705 383.637L899.941 514.513L793.313 654.395L831.585 611.508L814.803 795.612L633.789 833.161L698.924 760.17C678.14 775.665 655.359 788.631 631.038 798.612L658.415 798.985L508.392 907.008L401.105 825.227L248.415 819.582L201.159 640.856L252.547 681.957C243.021 667.572 234.656 652.352 227.586 636.429L133.115 512.494L196.115 424.998L217.178 247.574L387.813 217.002L515.729 119.496ZM787.935 656.762L787.884 660.48L782.491 666.523C784.362 663.305 786.177 660.051 787.935 656.762Z"/>
</mask>
<path fill-rule="evenodd" clip-rule="evenodd" d="M515.729 119.496L624.486 197.806L784.417 224.077L805.705 383.637L899.941 514.513L793.313 654.395L831.585 611.508L814.803 795.612L633.789 833.161L698.924 760.17C678.14 775.665 655.359 788.631 631.038 798.612L658.415 798.985L508.392 907.008L401.105 825.227L248.415 819.582L201.159 640.856L252.547 681.957C243.021 667.572 234.656 652.352 227.586 636.429L133.115 512.494L196.115 424.998L217.178 247.574L387.813 217.002L515.729 119.496ZM787.935 656.762L787.884 660.48L782.491 666.523C784.362 663.305 786.177 660.051 787.935 656.762Z" fill="#565656"/>
<path d="M624.486 197.806L622.733 200.24L623.305 200.652L624 200.766L624.486 197.806ZM515.729 119.496L517.482 117.062L515.678 115.763L513.911 117.11L515.729 119.496ZM784.417 224.077L787.391 223.68L787.097 221.477L784.904 221.116L784.417 224.077ZM805.705 383.637L802.731 384.034L802.83 384.78L803.27 385.39L805.705 383.637ZM899.941 514.513L902.327 516.332L903.674 514.564L902.375 512.76L899.941 514.513ZM793.313 654.395L790.927 652.577L795.552 656.393L793.313 654.395ZM831.585 611.508L834.572 611.78L835.397 602.729L829.346 609.51L831.585 611.508ZM814.803 795.612L815.412 798.549L817.589 798.098L817.791 795.884L814.803 795.612ZM633.789 833.161L631.551 831.164L625.5 837.944L634.398 836.099L633.789 833.161ZM698.924 760.17L701.162 762.167L697.131 757.765L698.924 760.17ZM631.038 798.612L629.899 795.837L630.997 801.612L631.038 798.612ZM658.415 798.985L660.168 801.42L667.543 796.109L658.456 795.985L658.415 798.985ZM508.392 907.008L506.573 909.394L508.341 910.742L510.145 909.443L508.392 907.008ZM401.105 825.227L402.924 822.841L402.167 822.264L401.216 822.229L401.105 825.227ZM248.415 819.582L245.515 820.349L246.083 822.498L248.304 822.58L248.415 819.582ZM201.159 640.856L203.033 638.514L195.936 632.837L198.259 641.623L201.159 640.856ZM252.547 681.957L250.673 684.3L255.048 680.301L252.547 681.957ZM227.586 636.429L230.328 635.212L230.186 634.89L229.972 634.61L227.586 636.429ZM133.115 512.494L130.68 510.741L129.381 512.545L130.729 514.312L133.115 512.494ZM196.115 424.998L198.55 426.751L199.003 426.121L199.095 425.351L196.115 424.998ZM217.178 247.574L216.648 244.621L214.46 245.013L214.198 247.22L217.178 247.574ZM387.813 217.002L388.342 219.955L389.056 219.827L389.632 219.388L387.813 217.002ZM787.884 660.48L790.122 662.477L790.868 661.641L790.884 660.52L787.884 660.48ZM787.935 656.762L790.934 656.803L785.289 655.348L787.935 656.762ZM782.491 666.523L779.898 665.015L784.73 668.52L782.491 666.523ZM626.239 195.371L517.482 117.062L513.976 121.931L622.733 200.24L626.239 195.371ZM784.904 221.116L624.972 194.845L624 200.766L783.931 227.037L784.904 221.116ZM808.678 383.24L787.391 223.68L781.444 224.474L802.731 384.034L808.678 383.24ZM902.375 512.76L808.139 381.884L803.27 385.39L897.506 516.266L902.375 512.76ZM795.699 656.214L902.327 516.332L897.555 512.694L790.927 652.577L795.699 656.214ZM829.346 609.51L791.075 652.398L795.552 656.393L833.823 613.505L829.346 609.51ZM817.791 795.884L834.572 611.78L828.597 611.235L811.815 795.34L817.791 795.884ZM634.398 836.099L815.412 798.549L814.194 792.674L633.18 830.224L634.398 836.099ZM696.685 758.172L631.551 831.164L636.027 835.159L701.162 762.167L696.685 758.172ZM632.177 801.387C656.734 791.31 679.734 778.219 700.717 762.575L697.131 757.765C676.546 773.111 653.984 785.952 629.899 795.837L632.177 801.387ZM658.456 795.985L631.079 795.612L630.997 801.612L658.374 801.985L658.456 795.985ZM510.145 909.443L660.168 801.42L656.662 796.551L506.639 904.574L510.145 909.443ZM399.286 827.613L506.573 909.394L510.211 904.622L402.924 822.841L399.286 827.613ZM248.304 822.58L400.994 828.225L401.216 822.229L248.526 816.584L248.304 822.58ZM198.259 641.623L245.515 820.349L251.315 818.815L204.06 640.09L198.259 641.623ZM254.42 679.614L203.033 638.514L199.285 643.199L250.673 684.3L254.42 679.614ZM224.845 637.647C231.983 653.723 240.428 669.091 250.045 683.613L255.048 680.301C245.614 666.054 237.33 650.98 230.328 635.212L224.845 637.647ZM130.729 514.312L225.201 638.248L229.972 634.61L135.5 510.675L130.729 514.312ZM193.681 423.245L130.68 510.741L135.549 514.247L198.55 426.751L193.681 423.245ZM214.198 247.22L193.136 424.644L199.095 425.351L220.157 247.928L214.198 247.22ZM387.284 214.049L216.648 244.621L217.707 250.527L388.342 219.955L387.284 214.049ZM513.911 117.11L385.995 214.616L389.632 219.388L517.548 121.882L513.911 117.11ZM790.884 660.52L790.934 656.803L784.935 656.721L784.884 660.439L790.884 660.52ZM784.73 668.52L790.122 662.477L785.646 658.482L780.253 664.525L784.73 668.52ZM785.289 655.348C783.548 658.605 781.751 661.828 779.898 665.015L785.085 668.03C786.974 664.782 788.806 661.497 790.581 658.176L785.289 655.348Z" fill="#565656" mask="url(#path-1-outside-1_102_85)"/>
<mask id="path-3-outside-2_102_85" maskUnits="userSpaceOnUse" x="-5.5789" y="-5.29924" width="1034.92" height="1030.46" fill="black">
<rect fill="white" x="-5.5789" y="-5.29924" width="1034.92" height="1030.46"/>
<path fill-rule="evenodd" clip-rule="evenodd" d="M826.954 496.664L862.588 357.478L751.25 289.816L680.054 165.13L528.402 199.583C525.031 199.42 521.662 199.312 518.297 199.259L338.182 153.146L253.693 292.173L158.308 350.14L197.739 504.157L155.617 689.567L311.323 778.476L358.225 860.615L524.607 822.816C532.618 822.518 540.597 821.91 548.525 821L690.808 857.427L774.533 719.656L865.777 667.555L826.954 496.664Z"/>
</mask>
<path fill-rule="evenodd" clip-rule="evenodd" d="M826.954 496.664L862.588 357.478L751.25 289.816L680.054 165.13L528.402 199.583C525.031 199.42 521.662 199.312 518.297 199.259L338.182 153.146L253.693 292.173L158.308 350.14L197.739 504.157L155.617 689.567L311.323 778.476L358.225 860.615L524.607 822.816C532.618 822.518 540.597 821.91 548.525 821L690.808 857.427L774.533 719.656L865.777 667.555L826.954 496.664Z" fill="#ABABAB"/>
<path d="M862.588 357.478L865.494 358.222L866.046 356.068L864.146 354.914L862.588 357.478ZM826.954 496.664L824.047 495.92L823.868 496.622L824.028 497.329L826.954 496.664ZM751.25 289.816L748.645 291.303L749.029 291.977L749.692 292.379L751.25 289.816ZM680.054 165.13L682.659 163.643L681.557 161.712L679.389 162.205L680.054 165.13ZM528.402 199.583L528.257 202.579L528.667 202.599L529.066 202.508L528.402 199.583ZM518.297 199.259L517.553 202.165L517.896 202.253L518.25 202.259L518.297 199.259ZM338.182 153.146L338.926 150.24L336.772 149.689L335.618 151.588L338.182 153.146ZM253.693 292.173L255.251 294.737L255.876 294.357L256.256 293.731L253.693 292.173ZM158.308 350.14L156.75 347.577L154.85 348.731L155.401 350.885L158.308 350.14ZM197.739 504.157L200.664 504.822L200.825 504.115L200.645 503.413L197.739 504.157ZM155.617 689.567L152.692 688.902L152.2 691.07L154.13 692.172L155.617 689.567ZM311.323 778.476L313.928 776.988L313.522 776.277L312.81 775.871L311.323 778.476ZM358.225 860.615L355.62 862.103L356.722 864.033L358.89 863.541L358.225 860.615ZM524.607 822.816L524.495 819.819L524.216 819.829L523.943 819.891L524.607 822.816ZM548.525 821L549.27 818.093L548.733 817.956L548.183 818.019L548.525 821ZM690.808 857.427L690.064 860.333L692.217 860.884L693.372 858.985L690.808 857.427ZM774.533 719.656L773.046 717.051L772.372 717.435L771.97 718.098L774.533 719.656ZM865.777 667.555L867.264 670.161L869.195 669.058L868.702 666.891L865.777 667.555ZM859.682 356.734L824.047 495.92L829.86 497.408L865.494 358.222L859.682 356.734ZM749.692 292.379L861.03 360.041L864.146 354.914L752.808 287.252L749.692 292.379ZM677.449 166.618L748.645 291.303L753.855 288.328L682.659 163.643L677.449 166.618ZM529.066 202.508L680.719 168.056L679.389 162.205L527.737 196.657L529.066 202.508ZM518.25 202.259C521.582 202.311 524.919 202.418 528.257 202.579L528.547 196.586C525.143 196.422 521.742 196.313 518.344 196.259L518.25 202.259ZM337.438 156.052L517.553 202.165L519.041 196.353L338.926 150.24L337.438 156.052ZM256.256 293.731L340.745 154.704L335.618 151.588L251.129 290.615L256.256 293.731ZM159.866 352.704L255.251 294.737L252.135 289.61L156.75 347.577L159.866 352.704ZM200.645 503.413L161.214 349.396L155.401 350.885L194.833 504.901L200.645 503.413ZM158.543 690.232L200.664 504.822L194.813 503.493L152.692 688.902L158.543 690.232ZM312.81 775.871L157.105 686.962L154.13 692.172L309.835 781.081L312.81 775.871ZM360.83 859.128L313.928 776.988L308.718 779.963L355.62 862.103L360.83 859.128ZM523.943 819.891L357.56 857.69L358.89 863.541L525.272 825.742L523.943 819.891ZM548.183 818.019C540.331 818.921 532.429 819.523 524.495 819.819L524.719 825.814C532.807 825.513 540.863 824.899 548.868 823.98L548.183 818.019ZM691.552 854.52L549.27 818.093L547.781 823.906L690.064 860.333L691.552 854.52ZM771.97 718.098L688.244 855.869L693.372 858.985L777.097 721.214L771.97 718.098ZM864.289 664.95L773.046 717.051L776.021 722.261L867.264 670.161L864.289 664.95ZM824.028 497.329L862.851 668.22L868.702 666.891L829.879 496L824.028 497.329Z" fill="#565656" mask="url(#path-3-outside-2_102_85)"/>
<circle cx="510.28" cy="282.558" r="66.2573" fill="#FFFCEE" stroke="#FFF6EA" stroke-width="2"/>
<circle cx="304.84" cy="443.976" r="66.2573" fill="#A3FFBC" stroke="#FFF6EA" stroke-width="2"/>
<circle cx="737.732" cy="443.976" r="66.2573" fill="#95BFFF" stroke="#FFF6EA" stroke-width="2"/>
<circle cx="385.549" cy="688.548" r="66.2573" fill="#FF7A7A" stroke="#FFF6EA" stroke-width="2"/>
<circle cx="664.361" cy="688.548" r="66.2573" fill="#8F8F8F" stroke="#FFF6EA" stroke-width="2"/>
</svg>
