<svg width="348" height="348" viewBox="0 0 348 348" fill="none" xmlns="http://www.w3.org/2000/svg">
<circle cx="174" cy="174" r="174" fill="#FFDCAC"/>
<path d="M172 0H176V348H172V0Z" fill="#C18E46"/>
<path d="M348 172V176L0 176L1.74846e-07 172L348 172Z" fill="#C18E46"/>
<path d="M49.5327 52.3941L52.394 49.5328L298.467 295.606L295.606 298.467L49.5327 52.3941Z" fill="#C18E46"/>
<path d="M295.606 49.5327L298.467 52.3941L52.3941 298.467L49.5327 295.606L295.606 49.5327Z" fill="#C18E46"/>
<path d="M217.08 5.40524L220.989 6.45256L130.92 342.595L127.011 341.547L217.08 5.40524Z" fill="#C18E46"/>
<path d="M342.595 217.08L341.547 220.989L5.40523 130.92L6.45254 127.011L342.595 217.08Z" fill="#C18E46"/>
<path d="M85.2478 24.3232L88.7522 22.2999L262.752 323.677L259.248 325.7L85.2478 24.3232Z" fill="#C18E46"/>
<path d="M323.677 85.2478L325.7 88.7522L24.3231 262.752L22.2999 259.248L323.677 85.2478Z" fill="#C18E46"/>
<path d="M259.248 22.2999L262.752 24.3232L88.7521 325.7L85.2477 323.677L259.248 22.2999Z" fill="#C18E46"/>
<path d="M325.7 259.248L323.677 262.752L22.2999 88.7522L24.3231 85.2478L325.7 259.248Z" fill="#C18E46"/>
<path d="M127.011 6.45255L130.92 5.40523L220.989 341.547L217.08 342.595L127.011 6.45255Z" fill="#C18E46"/>
<path d="M341.547 127.011L342.595 130.92L6.45256 220.989L5.40524 217.08L341.547 127.011Z" fill="#C18E46"/>
<circle cx="174" cy="174" r="155" fill="#E4BE89"/>
</svg>
