<svg width="348" height="348" viewBox="0 0 348 348" fill="none" xmlns="http://www.w3.org/2000/svg">
<circle cx="174" cy="174" r="174" fill="#FFDCAC"/>
<path d="M172 0H176V348H172V0Z" fill="#C18E46"/>
<path d="M348 172V176L0 176L1.74846e-07 172L348 172Z" fill="#C18E46"/>
<path d="M49.5327 52.3941L52.394 49.5328L298.467 295.606L295.606 298.467L49.5327 52.3941Z" fill="#C18E46"/>
<path d="M295.606 49.5327L298.467 52.3941L52.3941 298.467L49.5327 295.606L295.606 49.5327Z" fill="#C18E46"/>
<path d="M217.08 5.40524L220.989 6.45256L130.92 342.595L127.011 341.547L217.08 5.40524Z" fill="#C18E46"/>
<path d="M342.595 217.08L341.547 220.989L5.40523 130.92L6.45254 127.011L342.595 217.08Z" fill="#C18E46"/>
<path d="M85.2478 24.3232L88.7522 22.2999L262.752 323.677L259.248 325.7L85.2478 24.3232Z" fill="#C18E46"/>
<path d="M323.677 85.2478L325.7 88.7522L24.3231 262.752L22.2999 259.248L323.677 85.2478Z" fill="#C18E46"/>
<path d="M259.248 22.2999L262.752 24.3232L88.7521 325.7L85.2477 323.677L259.248 22.2999Z" fill="#C18E46"/>
<path d="M325.7 259.248L323.677 262.752L22.2999 88.7522L24.3231 85.2478L325.7 259.248Z" fill="#C18E46"/>
<path d="M127.011 6.45255L130.92 5.40523L220.989 341.547L217.08 342.595L127.011 6.45255Z" fill="#C18E46"/>
<path d="M341.547 127.011L342.595 130.92L6.45256 220.989L5.40524 217.08L341.547 127.011Z" fill="#C18E46"/>
<circle cx="174" cy="174" r="155" fill="#E4BE89"/>
<path d="M237.7 232.375H110.3C107.605 232.375 105.4 234.583 105.4 237.281V247.094C105.4 249.792 107.605 252 110.3 252H237.7C240.395 252 242.6 249.792 242.6 247.094V237.281C242.6 234.583 240.395 232.375 237.7 232.375ZM257.3 134.25C249.184 134.25 242.6 140.843 242.6 148.969C242.6 151.146 243.09 153.17 243.948 155.04L221.775 168.348C217.059 171.17 210.964 169.575 208.239 164.791L183.279 121.064C186.556 118.366 188.7 114.318 188.7 109.719C188.7 101.593 182.116 95 174 95C165.884 95 159.3 101.593 159.3 109.719C159.3 114.318 161.444 118.366 164.721 121.064L139.761 164.791C137.036 169.575 130.911 171.17 126.225 168.348L104.083 155.04C104.91 153.2 105.431 151.146 105.431 148.969C105.431 140.843 98.8463 134.25 90.7306 134.25C82.615 134.25 76 140.843 76 148.969C76 157.095 82.5844 163.688 90.7 163.688C91.4963 163.688 92.2925 163.565 93.0581 163.442L115.2 222.562H232.8L254.942 163.442C255.708 163.565 256.504 163.688 257.3 163.688C265.416 163.688 272 157.095 272 148.969C272 140.843 265.416 134.25 257.3 134.25Z" fill="#C18E46"/>
</svg>
