<svg width="32" height="32" viewBox="0 0 32 32" fill="none" xmlns="http://www.w3.org/2000/svg">
<path d="M31.5913 19.8451L28.7203 18.2581C29.0101 16.7613 29.0101 15.2258 28.7203 13.729L31.5913 12.1419C31.9215 11.9613 32.0698 11.5871 31.9619 11.2387C31.2139 8.94196 29.9401 6.86455 28.2755 5.13552C28.0194 4.87101 27.6016 4.80649 27.2781 4.98714L24.4071 6.57423C23.2007 5.58068 21.8124 4.81295 20.3095 4.30972V1.14199C20.3095 0.780703 20.0467 0.464575 19.676 0.387156C17.2027 -0.141874 14.6687 -0.116068 12.3166 0.387156C11.946 0.464575 11.6831 0.780703 11.6831 1.14199V4.31617C10.187 4.82585 8.79868 5.59359 7.58559 6.58068L4.72135 4.99359C4.39112 4.81295 3.98002 4.87101 3.72392 5.14198C2.05929 6.86455 0.785551 8.94196 0.037479 11.2452C-0.0770905 11.5936 0.0779153 11.9678 0.408145 12.1484L3.27912 13.7355C2.98933 15.2323 2.98933 16.7677 3.27912 18.2645L0.408145 19.8516C0.0779153 20.0322 -0.0703511 20.4064 0.037479 20.7548C0.785551 23.0516 2.05929 25.129 3.72392 26.858C3.98002 27.1225 4.39786 27.1871 4.72135 27.0064L7.59233 25.4193C8.79868 26.4129 10.187 27.1806 11.6899 27.6838V30.858C11.6899 31.2193 11.9527 31.5354 12.3234 31.6128C14.7967 32.1419 17.3307 32.1161 19.6828 31.6128C20.0534 31.5354 20.3163 31.2193 20.3163 30.858V27.6838C21.8124 27.1742 23.2007 26.4064 24.4138 25.4193L27.2848 27.0064C27.615 27.1871 28.0261 27.129 28.2822 26.858C29.9469 25.1354 31.2206 23.058 31.9687 20.7548C32.0698 20.4 31.9215 20.0258 31.5913 19.8451ZM15.9963 21.1548C13.0243 21.1548 10.6048 18.8387 10.6048 15.9935C10.6048 13.1484 13.0243 10.8323 15.9963 10.8323C18.9684 10.8323 21.3878 13.1484 21.3878 15.9935C21.3878 18.8387 18.9684 21.1548 15.9963 21.1548Z" fill="#FFFCEE"/>
</svg>
