<svg width="26" height="47" viewBox="0 0 26 47" fill="none" xmlns="http://www.w3.org/2000/svg">
<path d="M12.9559 46.9356C12.8946 46.82 12.8445 46.4362 12.7572 45.4132C12.5101 42.5177 12.239 40.7344 11.7421 38.7361C11.2708 36.8408 10.7716 35.4254 10.029 33.8781C8.24534 30.1617 5.64692 27.2473 2.43821 25.364C1.91476 25.0568 0.805339 24.5082 0.341302 24.3272L0 24.194L0.021078 23.9578C0.0326712 23.8279 0.129558 22.6056 0.236381 21.2415C0.343205 19.8774 0.456839 18.4513 0.4889 18.0724C0.520962 17.6935 0.582418 16.9671 0.625469 16.4583C0.973967 12.3393 1.2613 9.80099 1.36675 9.90963C1.45447 10 1.58489 10.8919 1.9505 13.9015C2.30999 16.8608 2.60517 18.6507 2.95001 19.962C3.09388 20.5091 3.39764 21.4186 3.4365 21.4186C3.45494 21.4186 3.59777 21.3679 3.7539 21.306C3.91002 21.244 4.23161 21.1286 4.46853 21.0496L4.89931 20.9058L5.02325 20.5225C5.61662 18.6874 6.07125 15.5872 6.76808 8.62414C6.92951 7.01105 7.07952 5.54953 7.10144 5.37631C7.16698 4.85818 7.22741 4.48756 7.24366 4.50396C7.27615 4.53674 7.38024 5.54651 7.58723 7.83679C8.02975 12.7333 8.23657 14.6829 8.54564 16.8717C8.70881 18.0272 8.94971 19.3079 9.09631 19.7992L9.18282 20.0892L9.38024 20.0666C9.48883 20.0541 9.84643 20.0224 10.1749 19.9961C10.6457 19.9583 10.7792 19.935 10.8052 19.8859C10.8775 19.7496 11.1647 18.5993 11.3121 17.8558C11.8656 15.0642 12.1978 11.6837 12.5812 4.94327C12.7475 2.01921 12.8042 1.22691 12.8978 0.516371C12.971 -0.0392754 13.0064 -0.118858 13.0627 0.145952C13.1597 0.602291 13.2462 1.64464 13.3809 3.97876C13.5819 7.46388 13.6424 8.42806 13.7536 9.92327C14.0863 14.3955 14.5243 17.5113 15.1045 19.5329L15.2242 19.9502L15.8146 19.9967C16.1393 20.0222 16.5033 20.0536 16.6235 20.0665C16.8292 20.0885 16.8436 20.0844 16.8684 19.9964C17.3811 18.1769 17.7761 15.1363 18.3941 8.25015C18.6221 5.70985 18.728 4.65015 18.7638 4.55274C18.8167 4.40834 18.8998 5.10043 19.2336 8.46667C19.9298 15.4874 20.4345 18.9013 21.0361 20.6599L21.1199 20.905L21.4934 21.0298C21.6988 21.0985 22.022 21.214 22.2116 21.2866C22.4012 21.3592 22.5695 21.4186 22.5856 21.4186C22.6311 21.4186 22.9594 20.3978 23.1123 19.7811C23.4918 18.2502 23.7525 16.5748 24.2265 12.62C24.4397 10.8416 24.5955 9.8839 24.6717 9.8839C24.7838 9.8839 25.1463 13.3762 25.5522 18.3676C25.6384 19.4286 25.7264 20.5092 25.7476 20.7691C25.8443 21.9511 25.874 22.3254 25.9413 23.2098C25.9809 23.7295 26.0066 24.1659 25.9985 24.1797C25.9904 24.1934 25.7948 24.2812 25.5639 24.3748C23.6925 25.1331 21.7401 26.4429 20.1335 28.0176C19.1016 29.0291 18.3251 29.973 17.4982 31.2212C15.6383 34.0285 14.4795 37.1008 13.7926 41.0449C13.5618 42.3701 13.4297 43.4732 13.227 45.7675C13.1294 46.8714 13.0662 47.1436 12.9559 46.9356Z" fill="#FFF6EA"/>
</svg>
