<svg width="32" height="35" viewBox="0 0 32 35" fill="none" xmlns="http://www.w3.org/2000/svg">
<path d="M7.11656 14.3371L0.0799988 24.7296C-0.125331 25.063 0.0866654 25.4963 0.475326 25.539L14.3591 27.0103L7.11656 14.3371ZM0.493993 21.0284L5.51325 12.8718L0.403994 9.80652C0.225997 9.69986 0 9.82786 0 10.0352V20.889C0 21.1577 0.352662 21.2577 0.493993 21.0284ZM1.21665 28.2396L14.1765 34.0835C14.5298 34.2468 14.9331 33.9882 14.9331 33.5995V29.2216L1.36331 27.7349C1.06665 27.7016 0.947986 28.1076 1.21665 28.2396ZM6.63124 11.0545L11.9598 1.52531C12.2492 1.05465 11.7205 0.508659 11.2412 0.782655L1.18732 7.35656C1.02265 7.46456 1.02799 7.70722 1.19598 7.80855L6.63124 11.0545ZM15.9998 11.7332H23.2803L16.9084 0.507993C16.6998 0.169331 16.3498 0 15.9998 0C15.6498 0 15.2998 0.169331 15.0911 0.507993L8.71921 11.7332H15.9998ZM31.5955 9.80652L26.4863 12.8725L31.5055 21.029C31.6462 21.2584 31.9995 21.1584 31.9995 20.889V10.0352C31.9995 9.82786 31.7735 9.69986 31.5955 9.80652ZM25.3683 11.0545L30.8036 7.80789C30.9722 7.70655 30.9769 7.46389 30.8122 7.35589L20.7584 0.782655C20.279 0.508659 19.7504 1.05465 20.0397 1.52531L25.3683 11.0545ZM30.6362 27.7349L17.0664 29.2209V33.5988C17.0664 33.9882 17.4697 34.2462 17.8231 34.0828L30.7829 28.2389C31.0515 28.1076 30.9329 27.7016 30.6362 27.7349ZM24.883 14.3371L17.6411 27.0103L31.5249 25.539C31.9135 25.4956 32.1255 25.063 31.9202 24.7296L24.883 14.3371ZM15.9998 13.8665H9.30453L15.9998 25.583L22.695 13.8665H15.9998Z" fill="#FFF6EA"/>
</svg>
