<svg width="430" height="73" viewBox="0 0 430 73" fill="none" xmlns="http://www.w3.org/2000/svg">
<path d="M204.175 1.66652C210.343 0.564243 216.657 0.564243 222.825 1.66652L331 21H96L204.175 1.66652Z" fill="#FFC2AC"/>
<path d="M0 18H431V73H0V18Z" fill="#FFC2AC"/>
<path d="M384 3V18H431C431 18 384 13.8621 384 3Z" fill="#FFC2AC"/>
<path d="M384 3V18H337C337 18 384 13.8621 384 3Z" fill="#FFC2AC"/>
<path d="M47 3V18H94C94 18 47 13.8621 47 3Z" fill="#FFC2AC"/>
<path d="M47 3V18H0C0 18 47 13.8621 47 3Z" fill="#FFC2AC"/>
</svg>
