<svg width="26" height="23" viewBox="0 0 26 23" fill="none" xmlns="http://www.w3.org/2000/svg">
<path d="M0.589247 21.8026C0.781457 19.8985 1.17632 18.4708 1.92939 16.9571L2.64565 15.5173L2.11418 13.5935C1.82187 12.5353 1.64152 11.6457 1.7134 11.6166C1.78528 11.5874 2.61975 11.7977 3.56778 12.0838L5.29148 12.604L6.41679 11.8424C7.60337 11.0392 8.65849 10.529 9.74028 10.2351C10.5153 10.0246 10.4166 10.5003 10.9649 4.3348C11.3417 0.0987265 11.3499 0.0526352 11.7302 0.0526352H12.1147L12.1593 4.92837L12.2039 9.8041L13.0865 9.85536L13.969 9.90662V4.97963V0.0526352H14.379C14.8497 0.0526352 14.8743 0.160549 15.1493 3.44445C15.2391 4.51711 15.4023 6.4385 15.5118 7.7142L15.711 10.0337L16.4471 10.2206C17.4875 10.4849 19.2305 11.3441 20.1275 12.0348L20.8903 12.6222L22.6579 12.0921C23.63 11.8006 24.4603 11.5972 24.5029 11.6402C24.5455 11.6832 24.3418 12.5444 24.0503 13.554L23.5202 15.3897L24.1043 16.4975C25.0275 18.2485 25.7183 20.8215 25.7335 22.5658L25.7369 22.9474H19.8529H13.969V18.2186C13.969 13.5773 13.9626 13.4882 13.6206 13.3979C13.429 13.3474 13.0129 13.3485 12.696 13.4003L12.1198 13.4947V18.221V22.9474H6.29676H0.473694L0.589247 21.8026ZM6.15186 20.6558C8.11936 20.4598 8.06942 20.5723 6.87324 19.0291C6.29156 18.2787 5.72107 17.5413 5.6055 17.3906C5.41414 17.141 5.37326 17.1459 5.14804 17.4457C4.90246 17.7725 4.031 19.7795 3.79888 20.5527C3.68142 20.944 3.70003 20.9533 4.41046 20.8563C4.81346 20.8013 5.59709 20.711 6.15186 20.6558ZM22.4526 20.5307C22.2834 19.958 21.5038 18.1884 21.1465 17.5658L20.8318 17.0176L19.5735 18.6415C18.8814 19.5346 18.364 20.3147 18.4237 20.375C18.5407 20.4929 21.0914 20.8617 22.0077 20.8932C22.5106 20.9104 22.5543 20.8748 22.4526 20.5307ZM10.3205 15.8724C10.3761 14.6862 10.4002 13.6941 10.3742 13.6678C10.267 13.5597 7.78989 14.6765 7.34727 15.0326L6.86876 15.4175L8.44359 16.7192C9.30975 17.4351 10.0637 18.0228 10.119 18.0251C10.1743 18.0274 10.265 17.0587 10.3205 15.8724ZM18.1348 16.3601L19.3587 15.3461L18.8557 14.9848C18.3868 14.648 16.0955 13.6199 15.8138 13.6199C15.6873 13.6199 15.7544 15.947 15.9201 17.3122L16.0081 18.0367L16.4595 17.7054C16.7078 17.5232 17.4617 16.9178 18.1348 16.3601Z" fill="#565656"/>
</svg>
