<svg width="25" height="23" viewBox="0 0 25 23" fill="none" xmlns="http://www.w3.org/2000/svg">
<path d="M2.03122 4.83124L6.81041 8.0417L11.5737 1.32268C11.6789 1.17404 11.8179 1.05289 11.979 0.969302C12.1401 0.885712 12.3187 0.842102 12.4999 0.842102C12.6811 0.842102 12.8597 0.885712 13.0208 0.969302C13.1819 1.05289 13.3209 1.17404 13.4262 1.32268L18.1894 8.0417L22.9686 4.83124C23.1495 4.70999 23.361 4.64344 23.5783 4.63946C23.7955 4.63548 24.0093 4.69424 24.1944 4.80879C24.3795 4.92335 24.5282 5.08891 24.623 5.28591C24.7177 5.48291 24.7545 5.70311 24.729 5.9205L22.8594 21.9349C22.8268 22.2138 22.6937 22.471 22.4854 22.6576C22.2772 22.8442 22.0082 22.9473 21.7295 22.9474H3.27039C2.99168 22.9473 2.72268 22.8442 2.5144 22.6576C2.30613 22.471 2.17306 22.2138 2.14046 21.9349L0.270881 5.91936C0.24562 5.70206 0.282585 5.48201 0.377413 5.2852C0.47224 5.08838 0.620972 4.92301 0.806049 4.80861C0.991127 4.69421 1.20482 4.63555 1.42192 4.63956C1.63901 4.64357 1.85043 4.71008 2.03122 4.83124ZM12.4999 16.0678C13.1035 16.0678 13.6824 15.8262 14.1092 15.3962C14.536 14.9661 14.7757 14.3828 14.7757 13.7746C14.7757 13.1665 14.536 12.5832 14.1092 12.1531C13.6824 11.7231 13.1035 11.4815 12.4999 11.4815C11.8963 11.4815 11.3175 11.7231 10.8907 12.1531C10.4639 12.5832 10.2241 13.1665 10.2241 13.7746C10.2241 14.3828 10.4639 14.9661 10.8907 15.3962C11.3175 15.8262 11.8963 16.0678 12.4999 16.0678Z" fill="#565656"/>
</svg>
