<svg width="21" height="37" viewBox="0 0 21 37" fill="none" xmlns="http://www.w3.org/2000/svg">
<path d="M11.3313 35.6394C10.8578 34.3212 10.5451 33.0265 10.0773 30.4477C9.91923 29.5763 9.76742 28.8093 9.73993 28.7431C9.69673 28.6391 9.57253 28.6012 8.82268 28.4632C7.96353 28.305 7.94532 28.2985 6.88035 27.7713C5.62965 27.1521 5.10806 26.8568 4.76908 26.576C4.63483 26.4648 4.17196 25.9781 3.74047 25.4944C3.30897 25.0107 2.80409 24.4747 2.61851 24.3032C1.64221 23.401 0.891743 21.5017 0.688417 19.4186C0.604865 18.5626 0.612937 18.085 0.715864 17.7947C0.76414 17.6585 0.945199 17.0635 1.11822 16.4725C1.47754 15.2451 1.74431 14.5884 2.09001 14.0802C2.22279 13.885 2.36835 13.6207 2.41348 13.4928C2.54302 13.1256 2.81207 12.6906 3.28691 12.0806C3.68088 11.5745 3.79619 11.4696 4.39812 11.0697C4.76751 10.8243 5.32436 10.4184 5.63556 10.1678C6.33328 9.60585 6.80796 9.35572 7.89882 8.97518C9.11181 8.55203 9.2255 8.48601 9.52791 8.02911C9.86593 7.51841 9.97152 7.18798 9.95615 6.68899C9.94934 6.46809 9.97093 6.23642 10.0041 6.17418C10.0886 6.0158 10.2322 5.32401 10.3319 4.59555C10.3847 4.21014 10.5225 3.64588 10.6994 3.09124C11.0243 2.07225 11.1898 1.4509 11.243 1.04931C11.2636 0.894643 11.3001 0.755874 11.3243 0.740929C11.3985 0.695104 11.6544 1.04497 11.7307 1.29659C11.7823 1.46644 11.8029 2.01197 11.8029 3.20365C11.8029 4.81643 11.8074 4.88487 11.9359 5.22993C12.0335 5.4923 12.0597 5.64993 12.0347 5.82404C11.9232 6.60033 11.9299 7.08858 12.0637 7.9231L12.199 8.76671L12.5102 8.90668C12.6814 8.98365 13.4198 9.24779 14.1511 9.49363C16.4709 10.2735 16.9445 10.5769 18.108 12.0286C18.2459 12.2007 18.5283 12.5453 18.7355 12.7942C19.4633 13.6688 19.9495 14.5334 20.2899 15.5586C20.5604 16.3734 20.6466 16.8378 20.7481 18.028C20.8538 19.2669 20.8348 19.548 20.5724 20.6308C20.463 21.082 20.3469 21.7058 20.3143 22.017C20.2306 22.8156 20.1374 23.0915 19.7784 23.6041C19.6051 23.8515 19.3253 24.2597 19.1565 24.5111C18.7974 25.0461 17.951 25.8855 17.2479 26.404C16.5296 26.9336 14.7846 28.0155 14.4839 28.1176C14.3424 28.1656 13.9613 28.2335 13.6372 28.2685C12.6127 28.3788 12.2702 28.5223 12.1735 28.8815C12.0501 29.3402 12.048 29.8838 12.1658 30.8884C12.3122 32.1366 12.3138 32.6395 12.173 33.2267C12.1125 33.4792 11.9964 34.1412 11.9152 34.6978C11.7639 35.7341 11.6751 36.1862 11.6082 36.2618C11.5873 36.2853 11.4627 36.0052 11.3313 35.6394ZM9.81197 25.907C9.86234 25.6036 9.93486 24.9435 9.97311 24.4402C10.0392 23.571 10.0347 23.4428 9.88304 21.8854C9.69173 19.9202 9.69806 18.5838 9.90265 17.7451C10.0115 17.2991 10.0177 17.1533 9.98806 15.7365C9.95894 14.3427 9.94301 14.1542 9.80639 13.5864C9.67359 13.0344 9.65748 12.8599 9.66402 12.0445L9.6714 11.1251H8.96142C8.03871 11.1251 7.88115 11.1762 7.39021 11.6349C7.17203 11.8387 6.66228 12.3 6.25743 12.6599C5.46242 13.3667 5.09633 13.7958 4.9843 14.1522C4.87537 14.4987 4.80908 14.6088 4.26291 15.3502C3.7864 15.9971 3.75327 16.0602 3.71555 16.3936C3.69347 16.5888 3.60171 17.1857 3.51165 17.72L3.34789 18.6914L3.45459 19.2792C3.51327 19.6024 3.60441 20.147 3.65712 20.4893C3.83793 21.6636 4.09082 22.2439 4.618 22.6943C4.78918 22.8405 5.18547 23.3036 5.49865 23.7233C5.81183 24.143 6.17073 24.5891 6.29621 24.7146C6.59243 25.0108 7.42261 25.5499 8.07712 25.871C8.59269 26.1239 9.45802 26.4496 9.63003 26.4556C9.70083 26.458 9.7402 26.3393 9.81197 25.907ZM13.6304 25.8275C14.4898 25.4025 15.727 24.5396 16.4507 23.8603C16.8197 23.514 17.2918 23.0976 17.4999 22.935C17.8391 22.6699 17.891 22.6021 18.0025 22.2772C18.275 21.4828 18.3428 20.8465 18.3765 18.7636C18.3985 17.4015 18.3888 16.7409 18.3444 16.5777C18.3094 16.4491 18.1164 16.0921 17.9155 15.7843C17.661 15.3943 17.5221 15.1135 17.4576 14.8581C17.2566 14.0634 16.9878 13.7606 15.8373 13.033C15.4545 12.791 14.8994 12.4158 14.6037 12.1994C14.1317 11.8537 12.914 11.1817 12.7599 11.1817C12.6964 11.1817 12.3596 12.1691 12.2484 12.6811C12.1357 13.2003 12.1532 13.5546 12.3126 13.9781C12.5058 14.4914 12.6054 15.1467 12.6791 16.3895C12.7476 17.5458 12.7501 17.518 12.4093 19.4426C12.22 20.5117 12.2039 20.6889 12.2036 21.7058C12.2033 22.7452 12.2121 22.8378 12.3559 23.3023C12.6334 24.1985 12.6704 24.7728 12.5291 25.9915L12.4947 26.2882L12.8278 26.1739C13.011 26.1111 13.3722 25.9552 13.6304 25.8275Z" fill="#565656"/>
</svg>
