<svg width="31" height="18" viewBox="0 0 31 18" fill="none" xmlns="http://www.w3.org/2000/svg">
<path d="M11.7001 17.5789H8.31382L5.81296 11.3539L3.4916 17.5789H0.10527L4.10185 8.55022L0.404416 0.210526H3.68305L5.99245 5.92476L7.99074 0.210526H11.401L7.70356 8.69278L11.7001 17.5789Z" fill="#565656"/>
<path d="M22.7925 5.55648C22.7925 7.40183 22.3218 8.8195 21.3805 9.80949C20.4472 10.7916 19.095 11.2826 17.3241 11.2826H16.5104V17.5789H13.2557V0.210526H17.695C21.0933 0.210526 22.7925 1.99251 22.7925 5.55648ZM16.5104 8.47894H17.1326C17.9303 8.47894 18.5246 8.26114 18.9155 7.82554C19.3064 7.38995 19.5019 6.67715 19.5019 5.68716C19.5019 4.77637 19.3224 4.10317 18.9634 3.66758C18.6044 3.22406 18.05 3.0023 17.3001 3.0023H16.5104V8.47894Z" fill="#565656"/>
<path d="M30.4704 7.15789H25.0213C24.6439 7.15789 24.455 6.7142 24.7218 6.45472L27.4463 3.80485C27.6117 3.644 27.8799 3.644 28.0453 3.80485L30.7698 6.45472C31.0367 6.7142 30.8477 7.15789 30.4704 7.15789Z" fill="#565656"/>
<path d="M25.0213 10.6316L30.4704 10.6316C30.8477 10.6316 31.0366 11.0753 30.7699 11.3348L28.0453 13.9846C27.8799 14.1455 27.6117 14.1455 27.4464 13.9846L24.7218 11.3348C24.455 11.0753 24.644 10.6316 25.0213 10.6316Z" fill="#565656"/>
</svg>
